<svg viewBox="0 0 64 64" fill="none" xmlns="http://www.w3.org/2000/svg">
  <defs>
    <linearGradient id="logo-gradient" x1="0%" y1="0%" x2="100%" y2="100%">
      <stop offset="0%" stop-color="#1e40af" />
      <stop offset="100%" stop-color="#7c3aed" />
    </linearGradient>
    <linearGradient id="logo-gradient-2" x1="0%" y1="0%" x2="100%" y2="100%">
      <stop offset="0%" stop-color="#7c3aed" />
      <stop offset="100%" stop-color="#059669" />
    </linearGradient>
    <linearGradient id="logo-gradient-3" x1="0%" y1="0%" x2="100%" y2="100%">
      <stop offset="0%" stop-color="#059669" />
      <stop offset="100%" stop-color="#dc2626" />
    </linearGradient>
    <filter id="drop-shadow" x="-20%" y="-20%" width="140%" height="140%">
      <feDropShadow dx="0" dy="2" stdDeviation="2" flood-color="rgba(0,0,0,0.1)" />
    </filter>
  </defs>

  <!-- Main Circle Background -->
  <circle cx="32" cy="32" r="30" fill="url(#logo-gradient)" filter="url(#drop-shadow)" />
  
  <!-- Inner Design - Represents Impact Waves -->
  <g transform="translate(32, 32)">
    <!-- Center Core - The Source of Impact -->
    <circle cx="0" cy="0" r="6" fill="#ffffff" />
    
    <!-- Impact Waves - Concentric Elements -->
    <circle cx="0" cy="0" r="12" fill="none" stroke="url(#logo-gradient-2)" stroke-width="2" opacity="0.8" />
    <circle cx="0" cy="0" r="18" fill="none" stroke="url(#logo-gradient-3)" stroke-width="1.5" opacity="0.6" />
    
    <!-- Directional Impact Arrows -->
    <g opacity="0.9">
      <!-- Top Arrow -->
      <path d="M0,-20 L-3,-15 L-1,-15 L-1,-10 L1,-10 L1,-15 L3,-15 Z" fill="#ffffff" />
      <!-- Right Arrow -->
      <path d="M20,0 L15,3 L15,1 L10,1 L10,-1 L15,-1 L15,-3 Z" fill="#ffffff" />
      <!-- Bottom Arrow -->
      <path d="M0,20 L3,15 L1,15 L1,10 L-1,10 L-1,15 L-3,15 Z" fill="#ffffff" />
      <!-- Left Arrow -->
      <path d="M-20,0 L-15,-3 L-15,-1 L-10,-1 L-10,1 L-15,1 L-15,3 Z" fill="#ffffff" />
    </g>
    
    <!-- Corner Accent Dots -->
    <circle cx="14" cy="-14" r="2" fill="url(#logo-gradient-3)" opacity="0.7" />
    <circle cx="14" cy="14" r="2" fill="url(#logo-gradient-2)" opacity="0.7" />
    <circle cx="-14" cy="14" r="2" fill="url(#logo-gradient)" opacity="0.7" />
    <circle cx="-14" cy="-14" r="2" fill="url(#logo-gradient-3)" opacity="0.7" />
  </g>
</svg>